<?xml version="1.0" encoding="UTF-8" standalone="no"?>
<svg version="1.1" xmlns="http://www.w3.org/2000/svg" xmlns:xlink="http://www.w3.org/1999/xlink" width="793.92" height="1122.24">
	<g id="dp_dp001">
		<path id="dp_path002" fill="#600030" fill-rule="evenodd" d="M 165.649,569.101 L 186.98,855.085 L 307.201,855.088 L 350.831,594.597 L 386.705,632.843 L 313.989,378.857 L 119.111,594.597 Z "/>
		<path id="dp_path003" fill="#650008" fill-rule="evenodd" d="M 196.444,508.984 L 182.131,429.852 L 165.649,443.579 L 186.98,394.548 L 218.975,419.065 L 202.491,419.065 L 214.44,489.064 Z "/>
		<path id="dp_path004" fill="#fffa95" fill-rule="evenodd" d="M 224.791,581.851 L 230.607,657.796 L 277.145,657.799 L 287.811,581.851 Z "/>
		<path id="dp_path005" fill="#3f0051" fill-rule="evenodd" d="M 218.977,855.085 L 214.125,719.139 L 287.813,719.139 L 280.055,855.085 Z "/>
		<path id="dp_path006" fill="#a39300" fill-rule="evenodd" d="M 224.791,729.925 L 232.547,776.997 L 271.329,777 L 271.332,734.829 Z "/>
		<path id="dp_path007" fill="#560022" fill-rule="evenodd" d="M 340.288,657.545 L 521.471,639.707 L 521.473,855.085 L 307.201,855.085 Z "/>
		<path id="dp_path008" fill="#39001b" fill-rule="evenodd" d="M 521.476,855.091 L 484.629,536.741 L 462.329,569.101 L 534.075,286.679 L 691.143,551.449 L 645.573,518.107 L 673.689,855.085 L 673.689,853.499 Z "/>
		<path id="dp_path009" fill="#6e0052" fill-rule="evenodd" d="M 602.259,401.613 L 598.065,337.671 L 586.431,354.343 L 608.729,290.655 L 645.573,337.671 L 628.123,331.788 L 628.948,446.608 Z "/>
		<path id="dp_path010" fill="#b25500" fill-rule="evenodd" d="M 539.893,536.741 L 538.924,632.843 L 606.791,626.957 L 606.791,525.953 Z "/>
		<path id="dp_path011" fill="#8b6700" fill-rule="evenodd" d="M 555,695.444 L 566.321,794.5 L 645.573,794.5 L 628.585,688.368 Z "/>
		<path id="dp_path012" fill="#530056" fill-rule="evenodd" d="M 252.544,581.851 L 260.352,581.851 L 258.529,612.017 L 283.117,615.267 L 281.987,623.323 L 256.301,618.264 L 256.301,657.8 L 248.12,657.796 L 252.544,618.264 L 228.016,623.975 L 228.016,616.491 L 252.544,612.017 Z "/>
		<path id="dp_path013" fill="#6e0020" fill-rule="evenodd" d="M 566.792,532.404 L 577.101,530.741 L 575.251,566.215 L 606.792,566.215 L 606.791,573.241 L 575.251,570.639 L 575.251,585.212 L 606.793,593.28 L 606.791,601.868 L 572.857,593.28 L 575.057,629.709 L 567.476,629.711 L 566.792,593.28 L 539.284,597.184 L 539.389,586.771 L 567.476,585.212 L 566.792,566.215 L 538.924,566.745 L 539.893,556.313 L 567.476,556.313 L 566.792,530.741"/>
		<path id="dp_path014" fill="#600021" fill-rule="evenodd" d="M 583.728,692.681 L 588.603,716.812 L 557.496,717.287 L 558.383,725.035 L 588.604,723.72 L 588.605,739.837 L 561.048,748.359 L 562.448,760.611 L 593.208,748.359 L 593.208,768.236 L 566.321,791.436 L 566.321,794.501 L 575.352,794.5 L 604.72,772.84 L 645.573,794.5 L 645.573,787.572 L 604.72,760.611 L 604.72,734.081 L 634.493,725.28 L 632.4,712.2 L 601.535,723.72 L 601.535,706.451 L 600.115,688.368 Z "/>
		<path id="dp_path015" fill="#56002d" fill-rule="evenodd" d="M 245.072,732.063 L 252.064,732.799 L 252.065,749.815 L 270.853,753.463 L 270.853,760.611 L 252.064,760.56 L 252.064,776.997 L 245.951,776.997 L 243.991,760.611 L 229.652,759.432 L 228.012,749.472 L 243.991,749.472 Z "/>
		<path id="dp_path016" fill="#caa000" fill-rule="evenodd" d="M 350.831,693.787 L 346.069,736.768 L 377.537,741.756 L 386.707,693.787 Z "/>
		<path id="dp_path017" fill="#a32b00" fill-rule="evenodd" d="M 410.157,693.787 L 413.995,745.977 L 469.639,745.979 L 480.768,687.647 Z "/>
		<path id="dp_path018" fill="#86001c" fill-rule="evenodd" d="M 358.66,738.764 L 363.212,739.485 L 363.213,727.941 L 372.165,727.941 L 372.165,723.336 L 365.571,723.336 L 372.165,716.813 L 372.165,712.207 L 366.388,716.813 L 371.013,708.753 L 365.571,706.835 L 365.571,701.463 L 358.976,701.463 L 363.212,706.835 L 358.349,706.835 L 358.976,712.207 L 350.831,716.045 L 355.664,717.772 L 366.388,712.207 L 358.349,720.475 L 355.664,723.336 L 358.976,723.336 Z "/>
		<path id="dp_path019" fill="#78002f" fill-rule="evenodd" d="M 438.171,745.977 L 437.787,736.768 L 445.463,720.475 L 460.428,706.835 L 464.649,716.045 L 474.628,706.067 L 477.356,705.528 L 469.639,745.977 Z "/>
		<path id="dp_path020" fill="#956600" fill-rule="evenodd" d="M 456.591,720.475 L 452.369,725.753 L 456.591,731.011 L 460.428,725.753 Z "/>
		<path id="dp_path021" fill="#4c0014" fill-rule="evenodd" d="M 393.651,652.292 L 382.911,529.54 L 372.165,547.961 L 404.785,447.033 L 475.396,516.492 L 448.533,508.817 L 475.397,645.433 Z "/>
		<path id="dp_path022" fill="#600019" fill-rule="evenodd" d="M 438.06,479.765 L 427.429,468.559 L 427.429,429.764 L 419.752,439.376 L 427.429,410.192 L 448.533,437.823 L 437.865,433.601 Z "/>
		<path id="dp_path023" fill="#815d00" fill-rule="evenodd" d="M 404.785,556.787 L 412.46,630.468 L 452.371,630.468 L 437.865,549.663 L 404.401,556.019"/>
		<path id="dp_path024" fill="#3e001f" fill-rule="evenodd" d="M 418.439,553.352 L 421.233,571.379 L 406.459,572.849 L 407.187,579.84 L 421.235,579.84 L 421.236,590.065 L 408.623,592.108 L 408.18,599.661 L 425.124,599 L 428.387,630.468 L 437.865,630.468 L 433.951,599 L 446.027,595.131 L 444.675,587.599 L 433.951,590.065 L 433.951,579.84 L 443.049,578.544 L 441.364,569.153 L 426.243,569.153 Z "/>
		<path id="dp_path025" fill="#3e001f" fill-rule="evenodd" d="M 313.989,357.451 C 321.009,357.451 326.701,367.035 326.701,378.857 C 326.701,390.68 321.009,400.264 313.989,400.264 C 306.969,400.264 301.277,390.68 301.277,378.857 C 301.277,367.035 306.969,357.451 313.989,357.451 Z "/>
		<path id="dp_path026" fill="#3e001f" fill-rule="evenodd" d="M 537.656,273.515 C 544.199,273.515 549.503,281.765 549.503,291.944 C 549.503,302.123 544.199,310.373 537.656,310.373 C 531.113,310.373 525.809,302.123 525.809,291.944 C 525.809,281.765 531.113,273.515 537.656,273.515 Z "/>
		<path id="dp_path027" fill="#730018" fill-rule="evenodd" d="M 350.74,771.672 L 345.513,799.227 L 414.337,802.932 L 485.764,812.124 L 485.764,771.672 L 403.431,771.672 Z "/>
		<path id="dp_path028" fill="#904c00" fill-rule="evenodd" d="M 575.231,465.316 C 589.721,458.985 596.084,446.929 595.589,435.809 C 595.372,431.941 594.333,428.405 592.888,425.313 C 590.423,420.301 586.625,415.621 580.335,411.661 C 566.573,403.371 548.371,403.395 534.621,412.987 C 531.38,415.296 527.645,418.887 525.036,423.396 C 518.279,435.296 521.22,448.647 530.325,457.723 C 533.847,461.172 537.8,463.595 541.728,465.316 L 532.841,492.353 L 538.479,492.353 L 540.028,488.015 L 541.577,492.353 L 542.168,492.353 L 543.719,488.015 L 545.267,492.353 L 545.859,492.353 L 547.409,488.015 L 548.957,492.353 L 549.549,492.353 L 551.099,488.015 L 552.648,492.353 L 553.24,492.353 L 554.789,488.015 L 556.339,492.353 L 556.931,492.353 L 558.48,488.015 L 560.029,492.353 L 560.62,492.353 L 562.171,488.015 L 563.719,492.353 L 564.311,492.353 L 565.861,488.015 L 567.409,492.353 L 568.001,492.353 L 569.551,488.015 L 571.1,492.353 L 571.692,492.353 L 573.241,488.015 L 574.791,492.353 L 575.383,492.353 L 576.932,488.015 L 578.481,492.353 L 584.116,492.353 Z M 564.961,469.612 L 551.999,469.612 L 558.48,453.821 Z M 574.835,446.064 C 572.513,446.051 571.097,444.14 570.819,443.769 C 570.685,443.583 570.751,443.677 570.621,443.488 C 568.507,440.241 568.512,435.863 570.255,432.623 C 570.579,432.052 570.964,431.5 571.465,430.977 C 572.6,429.841 574.277,429.121 576.008,429.612 C 577.315,430.003 578.38,430.995 579.144,432.167 C 580.969,435.108 581.024,438.475 580.081,441.357 C 579.98,441.648 579.867,441.94 579.739,442.233 C 579.163,443.477 577.683,446.047 574.835,446.064 Z M 542.125,446.064 C 539.803,446.051 538.388,444.14 538.109,443.769 C 537.976,443.583 538.041,443.677 537.912,443.488 C 535.797,440.241 535.803,435.863 537.545,432.623 C 537.868,432.052 538.253,431.5 538.755,430.977 C 539.891,429.841 541.568,429.121 543.299,429.612 C 544.605,430.003 545.671,430.995 546.435,432.167 C 548.26,435.108 548.315,438.475 547.372,441.357 C 547.271,441.648 547.157,441.94 547.029,442.233 C 546.453,443.477 544.973,446.047 542.125,446.064 Z "/>
		<image id="dp_image029" fill="none" x="396.48" y="757.44" width="78.72" height="64.32" xlink:href="Draw1D09_images/Draw1D09_001.png"/>
		<path id="dp_path030" fill="#650012" fill-rule="evenodd" d="M 448.601,770.188 C 448.839,769.673 451.66,762.092 451.691,762.373 C 451.721,762.655 455.456,770.796 455.456,770.796 C 455.456,770.796 467.748,776.943 469.151,776.751 C 469.392,776.717 469.393,776.252 469.923,776.231 C 469.923,776.231 470.337,776.328 470.337,776.328 C 470.908,776.469 471.175,776.587 471.225,777.061 C 471.287,777.625 467.436,789.34 467.041,788.935 C 466.215,788.088 467.072,785.247 466.421,785.208 C 465.392,785.147 463.331,788.404 462.957,787.589 C 462.584,786.776 462.805,783.787 462.424,783.997 C 461.868,784.301 459.828,787.415 459.736,786.571 C 459.644,785.725 458.744,782.689 458.805,783.253 C 458.867,783.816 457.444,784.695 457.019,785.157 C 456.748,785.452 452.593,791.621 453.452,799.505 C 454.309,807.391 457.371,809.336 457.401,809.619 C 457.432,809.9 459.053,811.717 456.832,812.244 C 454.609,812.771 451.261,813.42 450.515,811.792 C 449.768,810.164 447.324,798.179 445.139,796.421 C 442.952,794.665 418.577,796.489 416.203,797.576 C 412.36,799.332 414.037,812.391 416.292,813.516 C 418.06,814.399 417.389,816.268 416.16,816.717 C 415.628,816.911 410.733,818.365 409.777,817.08 C 409.223,816.333 408,800.059 406.264,795.373 C 404.36,790.236 405.463,787.576 404.543,781.391 C 403.539,774.636 401.399,768.083 401.789,767.233 C 402.204,766.331 402.891,769.339 404.021,772.681 C 405.147,776.005 406.713,779.663 408.892,780.136 C 416.408,781.769 446.845,775.94 447.156,775.688 C 447.264,775.6 447.196,773.223 448.601,770.188 Z "/>
		<image id="dp_image031" fill="none" x="401.743" y="762.373" width="69.484" height="55.2307" xlink:href="Draw1D09_images/Draw1D09_002.png"/>
	</g>
</svg>